<?xml version="1.0" standalone="no"?>
<!DOCTYPE svg PUBLIC "-//W3C//DTD SVG 20010904//EN"
 "http://www.w3.org/TR/2001/REC-SVG-20010904/DTD/svg10.dtd">
<svg version="1.0" xmlns="http://www.w3.org/2000/svg"
 width="256.000000pt" height="256.000000pt" viewBox="0 0 256.000000 256.000000"
 preserveAspectRatio="xMidYMid meet">

<g transform="translate(0.000000,256.000000) scale(0.100000,-0.100000)"
fill="#000000" stroke="none">
<path d="M1145 2480 c-11 -5 -34 -9 -50 -9 -35 -1 -161 -47 -251 -91 -124 -61
-210 -166 -266 -320 -11 -30 -23 -64 -28 -75 -4 -11 -16 -40 -26 -65 -27 -66
-60 -117 -125 -190 -62 -71 -129 -192 -129 -234 0 -14 -11 -48 -25 -75 -34
-64 -48 -154 -34 -217 5 -27 14 -71 20 -99 22 -111 39 -146 77 -162 19 -8 56
-30 80 -49 26 -19 57 -34 72 -34 15 0 48 -9 74 -21 40 -17 45 -22 36 -39 -14
-26 -42 -40 -79 -40 -45 0 -47 -18 -5 -36 81 -34 176 1 229 84 25 40 36 40 60
0 10 -18 57 -73 104 -121 91 -95 98 -112 64 -164 -21 -31 -13 -112 18 -183 31
-72 93 -119 203 -154 48 -16 93 -25 101 -22 11 4 15 24 15 81 0 41 6 93 12
115 14 45 34 53 121 50 29 -2 61 -2 73 -1 38 2 94 66 94 107 0 10 15 33 33 52
l32 35 -45 -25 c-25 -14 -62 -37 -83 -51 -70 -48 -198 -59 -254 -21 -30 19
-73 105 -73 144 0 24 6 32 33 43 17 8 55 16 83 20 68 8 160 50 198 90 17 18
40 37 51 42 25 11 -119 26 -180 18 -51 -6 -98 11 -93 35 2 12 13 17 36 18 18
0 40 7 48 16 15 15 13 17 -15 23 -44 9 -56 43 -42 114 6 30 11 108 11 173 0
128 4 137 54 124 17 -4 28 -17 36 -43 21 -64 72 -153 99 -172 14 -10 47 -23
73 -29 58 -15 207 -16 244 -2 15 6 29 9 31 6 3 -2 -2 -29 -11 -59 -21 -74 -23
-265 -2 -248 17 14 21 8 30 -42 5 -28 3 -45 -9 -63 -21 -32 -7 -30 41 5 30 23
43 27 57 19 15 -8 26 -5 49 12 l29 21 30 -25 c16 -14 46 -30 67 -36 57 -16 63
-14 52 16 -25 65 -16 87 83 192 81 86 98 110 126 181 37 90 47 150 36 208 -6
33 -8 36 -19 21 -14 -19 -26 -14 -26 12 0 9 -15 38 -32 65 -18 27 -45 67 -60
89 -47 70 -31 61 32 -18 33 -42 60 -80 60 -85 0 -5 7 -15 16 -22 15 -12 16
-11 9 11 -4 14 -11 40 -15 57 -5 18 -35 75 -68 125 -79 123 -93 152 -141 293
-48 140 -106 243 -172 306 -52 50 -94 73 -213 119 -58 23 -94 45 -137 85 -52
48 -71 57 -169 89 -101 33 -121 36 -223 35 -62 0 -121 -4 -132 -9z m929 -420
c31 -59 24 -69 -8 -11 -19 35 -41 71 -48 80 -7 10 0 3 15 -13 16 -17 34 -42
41 -56z m-357 -105 c13 -33 56 -126 95 -207 38 -81 72 -166 75 -190 l6 -43
-27 32 c-16 19 -46 38 -75 48 -44 14 -60 15 -172 1 -111 -14 -126 -18 -146
-41 -27 -30 -29 -57 -8 -75 14 -11 12 -15 -14 -31 -16 -9 -32 -22 -35 -28 -4
-6 -16 -11 -27 -11 -10 0 -19 -6 -19 -12 0 -9 -2 -10 -8 -2 -4 6 -21 15 -39
18 -39 9 -78 58 -86 109 -8 53 -18 61 -93 82 -36 10 -68 23 -71 30 -2 7 5 31
16 53 11 21 19 52 17 68 -2 18 9 51 28 86 25 48 38 61 77 78 74 31 154 49 279
62 63 6 131 17 150 24 19 7 39 12 44 10 4 -1 19 -29 33 -61z m143 -438 c58
-28 66 -57 16 -57 -67 0 -216 42 -216 61 0 8 45 15 115 17 23 1 59 -8 85 -21z
m-870 -122 c-7 -8 -16 -12 -21 -9 -13 8 -1 24 18 24 13 0 13 -3 3 -15z m-70
-42 c0 -26 -12 -30 -30 -8 -9 10 -9 15 -1 15 6 0 11 10 11 23 0 18 2 19 10 7
5 -8 10 -25 10 -37z m584 21 c4 -15 2 -32 -3 -37 -18 -18 -13 -31 22 -54 29
-20 41 -22 130 -18 54 3 107 9 117 15 10 5 27 10 37 10 26 0 56 38 57 74 1 20
7 32 17 34 23 4 28 -16 30 -111 2 -137 -19 -152 -211 -152 -145 0 -179 13
-217 81 -23 41 -35 147 -20 172 13 21 34 13 41 -14z m141 7 c-6 -5 -23 -12
-40 -16 -29 -6 -29 -6 -11 9 21 17 67 23 51 7z m140 -3 c35 -16 31 -41 -10
-61 -42 -20 -54 -22 -37 -5 7 7 12 27 12 45 0 37 0 37 35 21z m-656 -42 c-2
-2 -15 -7 -29 -11 -25 -8 -25 -8 -6 14 13 14 23 18 30 11 5 -5 8 -11 5 -14z
m-5 -85 c-4 -14 -7 -36 -8 -49 -2 -34 -23 -42 -121 -42 -105 0 -133 12 -96 38
34 23 181 79 209 79 21 0 23 -3 16 -26z m6 -137 c6 -14 10 -49 10 -79 0 -48
-3 -56 -30 -75 -42 -30 -103 -37 -135 -16 -27 18 -65 84 -65 115 0 11 -5 23
-10 26 -7 4 -7 13 0 25 8 16 24 20 83 23 39 1 87 4 105 5 27 2 34 -3 42 -24z
m-77 -251 c2 -5 -2 -19 -9 -33 l-14 -25 0 33 c0 29 13 43 23 25z m357 -83 c0
-11 -48 -25 -57 -17 -3 3 -12 -1 -21 -10 -14 -14 -16 -14 -23 3 -3 11 -4 21
-1 24 2 3 7 -1 9 -7 4 -10 8 -9 20 2 16 17 73 21 73 5z"/>
<path d="M1404 965 c-18 -14 -18 -14 6 -14 14 0 34 6 44 14 19 14 19 15 -5 15
-14 0 -34 -7 -45 -15z"/>
<path d="M1582 363 c-10 -60 -18 -84 -39 -105 -15 -15 -22 -28 -17 -28 30 0
83 106 84 168 0 68 -15 49 -28 -35z"/>
<path d="M867 373 c-4 -3 -7 -18 -7 -33 0 -19 7 -30 25 -38 35 -16 41 1 15 43
-24 38 -24 38 -33 28z"/>
<path d="M848 223 c-5 -51 -3 -59 21 -79 22 -19 23 -24 12 -38 -12 -15 -16
-14 -37 9 -13 14 -33 25 -46 24 -22 0 -22 -1 -3 -8 11 -5 29 -18 39 -30 11
-11 25 -21 32 -21 7 0 17 -6 21 -13 4 -8 15 -17 23 -20 8 -4 29 -16 45 -26 39
-26 175 -31 155 -6 -7 8 -19 15 -27 15 -8 0 -28 11 -45 25 -31 26 -48 32 -48
15 0 -5 -9 -10 -20 -10 -11 0 -20 5 -20 10 0 6 9 10 19 10 23 0 38 37 22 53
-7 7 -16 3 -31 -14 l-21 -24 2 35 c2 46 -9 87 -27 94 -8 3 -19 17 -24 31 -17
45 -37 30 -42 -32z m69 -75 c-3 -8 -6 -5 -6 6 -1 11 2 17 5 13 3 -3 4 -12 1
-19z m3 -70 c0 -16 -3 -19 -11 -11 -6 6 -8 16 -5 22 11 17 16 13 16 -11z"/>
<path d="M930 270 c0 -5 5 -10 10 -10 6 0 10 5 10 10 0 6 -4 10 -10 10 -5 0
-10 -4 -10 -10z"/>
<path d="M805 40 c3 -5 13 -10 21 -10 8 0 12 4 9 10 -3 6 -13 10 -21 10 -8 0
-12 -4 -9 -10z"/>
</g>
</svg>
